<svg width="570.839990234375px" height="211.48001708984376px" xmlns="http://www.w3.org/2000/svg" viewBox="-35.41999511718751 -30.740008544921878 570.839990234375 211.48001708984376" style="background: rgb(148, 137, 251);" preserveAspectRatio="xMidYMid"><defs><filter id="editing-hover" x="-100%" y="-100%" width="300%" height="300%"><feFlood flood-color="#882aff" result="flood"></feFlood><feComposite operator="in" in2="SourceAlpha" in="flood" result="shadow"></feComposite><feOffset dx="-4" dy="-4" in="SourceGraphic" result="offset-1"></feOffset><feOffset dx="4" dy="4" in="shadow" result="offset-2"></feOffset><feMerge><feMergeNode in="offset-2"></feMergeNode><feMergeNode in="offset-1"></feMergeNode></feMerge></filter></defs><g filter="url(#editing-hover)"><g transform="translate(54.09971475601196, 119.99999713897705)"><path d="M54.72 2.40L54.72 2.40L54.72 2.40Q39.36 2.40 37.92-19.44L37.92-19.44L17.28-19.44L17.28-19.44Q14.88-13.92 13.20-9.12L13.20-9.12L10.08 0L-6.72 0L31.08-79.20L56.88-79.20L61.92-20.88L61.92-20.88Q63.12-8.28 67.92-4.56L67.92-4.56L67.92-4.56Q64.44 2.40 54.72 2.40ZM27.60-43.44L21-28.20L37.56-28.20L36.12-59.04L36.12-62.28L27.60-43.44ZM103.68-6.60L103.68-6.60L103.68-6.60Q99.96 2.40 88.08 2.40L88.08 2.40L88.08 2.40Q81.96 2.40 78.12-1.80L78.12-1.80L78.12-1.80Q74.88-5.52 74.88-9.24L74.88-9.24L74.88-9.24Q74.88-18.96 79.32-37.92L79.32-37.92L83.76-61.20L108.12-63.60L100.80-25.68L100.80-25.68Q98.76-16.80 98.76-13.68L98.76-13.68L98.76-13.68Q98.76-6.84 103.68-6.60ZM85.92-77.88L85.92-77.88L85.92-77.88Q85.92-82.56 89.82-85.08L89.82-85.08L89.82-85.08Q93.72-87.60 99.36-87.60L99.36-87.60L99.36-87.60Q105-87.60 108.42-85.08L108.42-85.08L108.42-85.08Q111.84-82.56 111.84-77.88L111.84-77.88L111.84-77.88Q111.84-73.20 108.06-70.80L108.06-70.80L108.06-70.80Q104.28-68.40 98.64-68.40L98.64-68.40L98.64-68.40Q93-68.40 89.46-70.80L89.46-70.80L89.46-70.80Q85.92-73.20 85.92-77.88ZM151.44-33.72L151.44-33.72L151.44-33.72Q155.76-41.40 155.76-49.20L155.76-49.20L155.76-49.20Q155.76-54.36 152.04-54.36L152.04-54.36L152.04-54.36Q149.16-54.36 146.16-49.44L146.16-49.44L146.16-49.44Q143.04-44.52 142.08-38.16L142.08-38.16L135.84 0L111 2.40L123.24-61.20L143.04-63.60L140.88-51.48L140.88-51.48Q146.76-63.60 159.96-63.60L159.96-63.60L159.96-63.60Q166.92-63.60 170.70-60L170.70-60L170.70-60Q174.48-56.40 174.48-49.02L174.48-49.02L174.48-49.02Q174.48-41.64 169.62-36.96L169.62-36.96L169.62-36.96Q164.76-32.28 156.48-32.28L156.48-32.28L156.48-32.28Q152.88-32.28 151.44-33.72ZM227.16 2.40L227.16 2.40L227.16 2.40Q212.64 2.40 212.64-8.88L212.64-8.88L212.64-8.88Q212.76-12 213.72-17.28L213.72-17.28L215.88-28.32L215.88-28.32Q219.12-43.92 219.12-47.40L219.12-47.40L219.12-47.40Q219.12-54.36 215.04-54.36L215.04-54.36L215.04-54.36Q208.20-54.36 204.60-36.48L204.60-36.48L197.52 0L173.40 2.40L185.88-61.32L205.56-63.60L203.64-51.84L203.64-51.84Q209.28-63.60 226.56-63.60L226.56-63.60L226.56-63.60Q234.96-63.60 238.50-60.06L238.50-60.06L238.50-60.06Q242.04-56.52 242.04-48.60L242.04-48.60L242.04-48.60Q242.04-41.16 238.20-23.76L238.20-23.76L238.20-23.76Q236.40-15.96 236.40-13.02L236.40-13.02L236.40-13.02Q236.40-10.08 238.02-8.40L238.02-8.40L238.02-8.40Q239.64-6.72 242.04-6.48L242.04-6.48L242.04-6.48Q240.84-2.40 236.70 0L236.70 0L236.70 0Q232.56 2.40 227.16 2.40ZM250.08-5.76L250.08-5.76L264.96-84L289.32-86.40L285.60-68.04L285.60-68.04Q284.28-62.40 282.60-58.44L282.60-58.44L282.60-58.44Q285.24-61.80 291-63.12L291-63.12L291-63.12Q292.68-63.60 294.72-63.60L294.72-63.60L294.72-63.60Q305.88-63.60 312-56.82L312-56.82L312-56.82Q318.12-50.04 318.12-36.96L318.12-36.96L318.12-36.96Q318.12-19.92 308.40-9.24L308.40-9.24L308.40-9.24Q297.96 2.40 279 2.40L279 2.40L279 2.40Q265.92 2.40 256.08-1.92L256.08-1.92L256.08-1.92Q252.60-3.48 250.08-5.76ZM280.56-42L274.20-6.84L274.20-6.84Q276.72-4.68 279.84-4.68L279.84-4.68L279.84-4.68Q282.96-4.68 284.76-5.88L284.76-5.88L284.76-5.88Q286.56-7.08 287.88-9.48L287.88-9.48L287.88-9.48Q291.48-15.96 294.36-35.76L294.36-35.76L294.36-35.76Q295.20-41.40 295.20-47.04L295.20-47.04L295.20-47.04Q295.20-52.68 293.94-54.48L293.94-54.48L293.94-54.48Q292.68-56.28 290.28-56.28L290.28-56.28L290.28-56.28Q282.96-56.28 280.56-42L280.56-42ZM323.76-5.76L323.76-5.76L338.64-84L363-86.40L359.28-68.04L359.28-68.04Q357.96-62.40 356.28-58.44L356.28-58.44L356.28-58.44Q358.92-61.80 364.68-63.12L364.68-63.12L364.68-63.12Q366.36-63.60 368.40-63.60L368.40-63.60L368.40-63.60Q379.56-63.60 385.68-56.82L385.68-56.82L385.68-56.82Q391.80-50.04 391.80-36.96L391.80-36.96L391.80-36.96Q391.80-19.92 382.08-9.24L382.08-9.24L382.08-9.24Q371.64 2.40 352.68 2.40L352.68 2.40L352.68 2.40Q339.60 2.40 329.76-1.92L329.76-1.92L329.76-1.92Q326.28-3.48 323.76-5.76ZM354.24-42L347.88-6.84L347.88-6.84Q350.40-4.68 353.52-4.68L353.52-4.68L353.52-4.68Q356.64-4.68 358.44-5.88L358.44-5.88L358.44-5.88Q360.24-7.08 361.56-9.48L361.56-9.48L361.56-9.48Q365.16-15.96 368.04-35.76L368.04-35.76L368.04-35.76Q368.88-41.40 368.88-47.04L368.88-47.04L368.88-47.04Q368.88-52.68 367.62-54.48L367.62-54.48L367.62-54.48Q366.36-56.28 363.96-56.28L363.96-56.28L363.96-56.28Q356.64-56.28 354.24-42L354.24-42Z" fill="#fefefe"></path></g></g><style>text {
  font-size: 64px;
  font-family: Arial Black;
  dominant-baseline: central;
  text-anchor: middle;
}</style></svg>