<svg width="48" height="48" viewBox="0 0 48 48" fill="none" xmlns="http://www.w3.org/2000/svg">
<rect width="48" height="48" rx="10" fill="url(#paint0_linear_5853_48)"/>
<path d="M24.25 33.8048L21.8938 31.6933C19.1583 29.2298 16.8969 27.1048 15.1094 25.3181C13.3219 23.5315 11.9 21.9275 10.8438 20.5063C9.7875 19.0851 9.04948 17.779 8.62969 16.5878C8.2099 15.3967 8 14.1786 8 12.9333C8 10.3887 8.85312 8.26363 10.5594 6.55818C12.2656 4.85273 14.3917 4 16.9375 4C18.3458 4 19.6865 4.29778 20.9594 4.89333C22.2323 5.48889 23.3292 6.32808 24.25 7.4109C25.1708 6.32808 26.2677 5.48889 27.5406 4.89333C28.8135 4.29778 30.1542 4 31.5625 4C34.1083 4 36.2344 4.85273 37.9406 6.55818C39.6469 8.26363 40.5 10.3887 40.5 12.9333C40.5 14.1786 40.2901 15.3967 39.8703 16.5878C39.4505 17.779 38.7125 19.0851 37.6562 20.5063C36.6 21.9275 35.1781 23.5315 33.3906 25.3181C31.6031 27.1048 29.3417 29.2298 26.6063 31.6933L24.25 33.8048ZM24.25 29.4193C26.85 27.0913 28.9896 25.0948 30.6688 23.43C32.3479 21.7651 33.675 20.3168 34.65 19.0851C35.625 17.8534 36.3021 16.757 36.6812 15.796C37.0604 14.835 37.25 13.8808 37.25 12.9333C37.25 11.3091 36.7083 9.95554 35.625 8.87272C34.5417 7.78989 33.1875 7.24848 31.5625 7.24848C30.2896 7.24848 29.1115 7.60716 28.0281 8.32454C26.9448 9.04191 26.2 9.95554 25.7938 11.0654H22.7063C22.3 9.95554 21.5552 9.04191 20.4719 8.32454C19.3885 7.60716 18.2104 7.24848 16.9375 7.24848C15.3125 7.24848 13.9583 7.78989 12.875 8.87272C11.7917 9.95554 11.25 11.3091 11.25 12.9333C11.25 13.8808 11.4396 14.835 11.8188 15.796C12.1979 16.757 12.875 17.8534 13.85 19.0851C14.825 20.3168 16.1521 21.7651 17.8313 23.43C19.5104 25.0948 21.65 27.0913 24.25 29.4193Z" fill="white"/>
<path d="M24.25 44L21.8938 41.8885C19.1583 39.4251 16.8969 37.3 15.1094 35.5134C13.3219 33.7267 11.9 32.1228 10.8438 30.7015C9.7875 29.2803 9.04948 27.9742 8.62969 26.7831C8.2099 25.592 8 24.3738 8 23.1285C8 20.5839 8.85312 18.4588 10.5594 16.7534C12.2656 15.0479 14.3917 14.1952 16.9375 14.1952C18.3458 14.1952 19.6865 14.493 20.9594 15.0886C22.2323 15.6841 23.3292 16.5233 24.25 17.6061C25.1708 16.5233 26.2677 15.6841 27.5406 15.0886C28.8135 14.493 30.1542 14.1952 31.5625 14.1952C34.1083 14.1952 36.2344 15.0479 37.9406 16.7534C39.6469 18.4588 40.5 20.5839 40.5 23.1285C40.5 24.3738 40.2901 25.592 39.8703 26.7831C39.4505 27.9742 38.7125 29.2803 37.6562 30.7015C36.6 32.1228 35.1781 33.7267 33.3906 35.5134C31.6031 37.3 29.3417 39.4251 26.6063 41.8885L24.25 44ZM24.25 39.6146C26.85 37.2865 28.9896 35.29 30.6688 33.6252C32.3479 31.9603 33.675 30.5121 34.65 29.2803C35.625 28.0486 36.3021 26.9523 36.6812 25.9913C37.0604 25.0302 37.25 24.076 37.25 23.1285C37.25 21.5043 36.7083 20.1508 35.625 19.0679C34.5417 17.9851 33.1875 17.4437 31.5625 17.4437C30.2896 17.4437 29.1115 17.8024 28.0281 18.5198C26.9448 19.2371 26.2 20.1508 25.7938 21.2607H22.7063C22.3 20.1508 21.5552 19.2371 20.4719 18.5198C19.3885 17.8024 18.2104 17.4437 16.9375 17.4437C15.3125 17.4437 13.9583 17.9851 12.875 19.0679C11.7917 20.1508 11.25 21.5043 11.25 23.1285C11.25 24.076 11.4396 25.0302 11.8188 25.9913C12.1979 26.9523 12.875 28.0486 13.85 29.2803C14.825 30.5121 16.1521 31.9603 17.8313 33.6252C19.5104 35.29 21.65 37.2865 24.25 39.6146Z" fill="white"/>
<defs>
<linearGradient id="paint0_linear_5853_48" x1="1.52112" y1="0.994287" x2="34.559" y2="55.4251" gradientUnits="userSpaceOnUse">
<stop stop-color="#474FFF" stop-opacity="0.9"/>
<stop offset="1" stop-color="#E37ACC"/>
</linearGradient>
</defs>
</svg>
