<svg width="55" height="67" viewBox="0 0 55 67" fill="none" xmlns="http://www.w3.org/2000/svg">
<path d="M27.5 49.875L23.5729 46.3542C19.0139 42.2465 15.2448 38.7031 12.2656 35.724C9.28646 32.7448 6.91667 30.0703 5.15625 27.7005C3.39584 25.3307 2.1658 23.1528 1.46615 21.1667C0.766498 19.1806 0.416672 17.1493 0.416672 15.0729C0.416672 10.8299 1.83855 7.28647 4.68229 4.44272C7.52604 1.59897 11.0694 0.177094 15.3125 0.177094C17.6597 0.177094 19.8941 0.673621 22.0156 1.66668C24.1371 2.65973 25.9653 4.05904 27.5 5.86459C29.0347 4.05904 30.8628 2.65973 32.9844 1.66668C35.1059 0.673621 37.3403 0.177094 39.6875 0.177094C43.9305 0.177094 47.4739 1.59897 50.3177 4.44272C53.1614 7.28647 54.5833 10.8299 54.5833 15.0729C54.5833 17.1493 54.2335 19.1806 53.5338 21.1667C52.8342 23.1528 51.6042 25.3307 49.8437 27.7005C48.0833 30.0703 45.7135 32.7448 42.7344 35.724C39.7552 38.7031 35.9861 42.2465 31.4271 46.3542L27.5 49.875ZM27.5 42.5625C31.8333 38.6806 35.3993 35.3516 38.1979 32.5755C40.9965 29.7995 43.2083 27.3846 44.8333 25.3307C46.4583 23.2769 47.5868 21.4488 48.2187 19.8464C48.8507 18.2439 49.1667 16.6528 49.1667 15.0729C49.1667 12.3646 48.2639 10.1077 46.4583 8.30209C44.6528 6.49654 42.3958 5.59376 39.6875 5.59376C37.566 5.59376 35.6024 6.19185 33.7969 7.38803C31.9913 8.58421 30.75 10.1077 30.0729 11.9583H24.9271C24.25 10.1077 23.0087 8.58421 21.2031 7.38803C19.3976 6.19185 17.434 5.59376 15.3125 5.59376C12.6042 5.59376 10.3472 6.49654 8.54167 8.30209C6.73611 10.1077 5.83334 12.3646 5.83334 15.0729C5.83334 16.6528 6.14931 18.2439 6.78125 19.8464C7.4132 21.4488 8.54167 23.2769 10.1667 25.3307C11.7917 27.3846 14.0035 29.7995 16.8021 32.5755C19.6007 35.3516 23.1667 38.6806 27.5 42.5625Z" fill="white"/>
<path d="M27.5 66.875L23.5729 63.3542C19.0139 59.2465 15.2448 55.7031 12.2656 52.724C9.28646 49.7448 6.91667 47.0703 5.15625 44.7005C3.39584 42.3307 2.1658 40.1528 1.46615 38.1667C0.766498 36.1806 0.416672 34.1493 0.416672 32.0729C0.416672 27.8299 1.83855 24.2865 4.68229 21.4427C7.52604 18.599 11.0694 17.1771 15.3125 17.1771C17.6597 17.1771 19.8941 17.6736 22.0156 18.6667C24.1371 19.6597 25.9653 21.059 27.5 22.8646C29.0347 21.059 30.8628 19.6597 32.9844 18.6667C35.1059 17.6736 37.3403 17.1771 39.6875 17.1771C43.9305 17.1771 47.4739 18.599 50.3177 21.4427C53.1614 24.2865 54.5833 27.8299 54.5833 32.0729C54.5833 34.1493 54.2335 36.1806 53.5338 38.1667C52.8342 40.1528 51.6042 42.3307 49.8437 44.7005C48.0833 47.0703 45.7135 49.7448 42.7344 52.724C39.7552 55.7031 35.9861 59.2465 31.4271 63.3542L27.5 66.875ZM27.5 59.5625C31.8333 55.6806 35.3993 52.3516 38.1979 49.5755C40.9965 46.7995 43.2083 44.3846 44.8333 42.3307C46.4583 40.2769 47.5868 38.4488 48.2187 36.8464C48.8507 35.2439 49.1667 33.6528 49.1667 32.0729C49.1667 29.3646 48.2639 27.1077 46.4583 25.3021C44.6528 23.4965 42.3958 22.5938 39.6875 22.5938C37.566 22.5938 35.6024 23.1919 33.7969 24.388C31.9913 25.5842 30.75 27.1077 30.0729 28.9583H24.9271C24.25 27.1077 23.0087 25.5842 21.2031 24.388C19.3976 23.1919 17.434 22.5938 15.3125 22.5938C12.6042 22.5938 10.3472 23.4965 8.54167 25.3021C6.73611 27.1077 5.83334 29.3646 5.83334 32.0729C5.83334 33.6528 6.14931 35.2439 6.78125 36.8464C7.4132 38.4488 8.54167 40.2769 10.1667 42.3307C11.7917 44.3846 14.0035 46.7995 16.8021 49.5755C19.6007 52.3516 23.1667 55.6806 27.5 59.5625Z" fill="white"/>
</svg>
